<?xml version="1.0" standalone="no"?>
<!DOCTYPE svg PUBLIC "-//W3C//DTD SVG 20010904//EN"
 "http://www.w3.org/TR/2001/REC-SVG-20010904/DTD/svg10.dtd">
<svg version="1.0" xmlns="http://www.w3.org/2000/svg"
 width="155.000000pt" height="155.000000pt" viewBox="0 0 155.000000 155.000000"
 preserveAspectRatio="xMidYMid meet">
<metadata>
Created by potrace 1.14, written by Peter Selinger 2001-2017
</metadata>
<g transform="translate(0.000000,155.000000) scale(0.100000,-0.100000)"
fill="#000000" stroke="none">
<path d="M1185 1260 l-128 -79 -36 18 c-86 43 -144 56 -256 56 -113 0 -186
-17 -274 -64 l-33 -18 -132 55 c-72 30 -137 59 -145 66 -18 14 -19 17 58 -133
l63 -125 -36 -70 c-113 -223 -77 -454 97 -629 64 -64 67 -70 50 -83 -16 -13
-15 -13 8 -3 22 9 34 7 70 -11 197 -101 419 -90 596 30 46 30 61 36 76 28 10
-5 21 -7 24 -5 2 3 -5 8 -16 12 -20 6 -18 10 23 57 142 162 175 392 83 578
l-22 45 32 174 c18 96 31 176 30 178 -2 1 -61 -33 -132 -77z"/>
</g>
</svg>
